<svg width="2009" height="613" viewBox="0 0 2009 613" fill="none" xmlns="http://www.w3.org/2000/svg">
<path d="M263 346.257C173.4 339.057 66.3333 417.257 24 457.257L0 577.257C76.3333 588.923 230 612.257 234 612.257C238 612.257 1419 599.59 2009 593.257L1965 236.257C1956 233.923 1937.4 220.057 1935 183.257C1932 137.257 1762 21.2567 1669 1.25672C1576 -18.7433 1490 206.257 1468 229.257C1450.4 247.657 1350 254.257 1302 255.257C1237.33 262.923 1104.2 296.057 1089 367.257C1073.8 438.457 903.333 469.59 820 476.257C744.667 481.59 588 482.057 564 441.257C534 390.257 375 355.257 263 346.257Z" fill="url(#paint0_radial_3_10)"/>
<defs>
<radialGradient id="paint0_radial_3_10" cx="0" cy="0" r="1" gradientUnits="userSpaceOnUse" gradientTransform="translate(1004.5 306.128) rotate(69.3558) scale(503.456 1651.99)">
<stop stop-color="#2B3749"/>
<stop offset="1" stop-color="#001129" stop-opacity="0"/>
</radialGradient>
</defs>
</svg>
